<svg width="158" height="159" viewBox="0 0 158 159" fill="none" xmlns="http://www.w3.org/2000/svg">
<g clip-path="url(#clip0_7174_2089)">
<path d="M0 59.7503L76.077 108.167C76.946 108.809 77.973 109.125 79 109.125C80.027 109.125 81.054 108.809 81.923 108.167L158 59.7503L81.9625 1.48784C80.2048 0.174464 77.7952 0.174464 76.0375 1.48784L0 59.7503Z" fill="white"/>
<path d="M128.375 0.5H29.625C24.1839 0.5 19.75 4.93388 19.75 10.375V119C19.75 121.726 21.962 123.938 24.6875 123.938H133.313C136.038 123.938 138.25 121.726 138.25 119V10.375C138.25 4.93388 133.826 0.5 128.375 0.5Z" fill="#A1D4FF"/>
<path d="M44.4375 30.1251H113.562C116.288 30.1251 118.5 27.9131 118.5 25.1876C118.5 22.4621 116.288 20.2501 113.562 20.2501H44.4375C41.712 20.2501 39.5 22.4621 39.5 25.1876C39.5 27.9131 41.712 30.1251 44.4375 30.1251Z" fill="#2B86F4"/>
<path d="M113.562 39.9999H44.4375C41.712 39.9999 39.5 42.2119 39.5 44.9374C39.5 47.6629 41.712 49.8749 44.4375 49.8749H113.562C116.288 49.8749 118.5 47.6629 118.5 44.9374C118.5 42.2119 116.288 39.9999 113.562 39.9999Z" fill="#2B86F4"/>
<path d="M83.9375 59.75H44.4375C41.712 59.75 39.5 61.962 39.5 64.6875C39.5 67.413 41.712 69.625 44.4375 69.625H83.9375C86.663 69.625 88.875 67.413 88.875 64.6875C88.875 61.962 86.663 59.75 83.9375 59.75Z" fill="#2B86F4"/>
<path d="M81.923 108.167C81.054 108.809 80.027 109.125 79 109.125C77.973 109.125 76.946 108.809 76.077 108.167L0 59.75V148.625C0 154.076 4.424 158.5 9.875 158.5H148.125C153.576 158.5 158 154.076 158 148.625V59.75L81.923 108.167Z" fill="#DCDCDC"/>
<path d="M148.125 158.5H9.875C4.33512 158.5 0 154.165 0 148.625C0 147.055 0.7505 145.574 2.0145 144.645L76.077 95.2704C76.946 94.6285 77.973 94.3125 79 94.3125C80.027 94.3125 81.054 94.6285 81.923 95.2704L155.985 144.645C157.249 145.574 158 147.055 158 148.625C158 154.165 153.665 158.5 148.125 158.5Z" fill="white"/>
<path d="M78.3897 117.237H77.7302C74.9708 117.237 72.7339 119.473 72.7339 122.233V131.126C72.7339 133.886 74.9708 136.123 77.7302 136.123H78.3897C81.149 136.123 83.386 133.886 83.386 131.126V122.233C83.386 119.473 81.149 117.237 78.3897 117.237Z" fill="#1C76F0"/>
<path d="M87.3838 129.021C87.2526 129.021 87.1226 129.047 87.0013 129.097C86.88 129.147 86.7699 129.221 86.6771 129.313C86.5842 129.406 86.5106 129.516 86.4605 129.638C86.4103 129.759 86.3845 129.889 86.3845 130.02C86.3845 132.228 85.5075 134.345 83.9463 135.907C82.385 137.468 80.2676 138.345 78.0597 138.345C75.8518 138.345 73.7343 137.468 72.1731 135.907C70.6119 134.345 69.7348 132.228 69.7348 130.02C69.7348 129.755 69.6296 129.501 69.4422 129.314C69.2548 129.126 69.0006 129.021 68.7356 129.021C68.4706 129.021 68.2164 129.126 68.029 129.314C67.8416 129.501 67.7363 129.755 67.7363 130.02C67.7398 132.584 68.6959 135.055 70.4189 136.953C72.142 138.851 74.509 140.042 77.0604 140.293V143.217H73.7299C73.4649 143.217 73.2107 143.323 73.0233 143.51C72.8359 143.697 72.7307 143.952 72.7307 144.217C72.7307 144.482 72.8359 144.736 73.0233 144.923C73.2107 145.111 73.4649 145.216 73.7299 145.216H82.3895C82.6545 145.216 82.9087 145.111 83.0961 144.923C83.2834 144.736 83.3887 144.482 83.3887 144.217C83.3887 143.952 83.2834 143.697 83.0961 143.51C82.9087 143.323 82.6545 143.217 82.3895 143.217H79.0589V140.293C81.6103 140.042 83.9774 138.851 85.7004 136.953C87.4235 135.055 88.3796 132.584 88.3831 130.02C88.3831 129.889 88.3573 129.759 88.3071 129.638C88.257 129.516 88.1834 129.406 88.0906 129.313C87.9977 129.221 87.8876 129.147 87.7663 129.097C87.645 129.047 87.515 129.021 87.3838 129.021Z" fill="#1C76F0"/>
</g>
<defs>
<clipPath id="clip0_7174_2089">
<rect width="158" height="158" fill="white" transform="translate(0 0.5)"/>
</clipPath>
</defs>
</svg>
